HIERARCHY
ROOT Hips
{
	OFFSET 0.0000 0.0000 0.0000
	CHANNELS 6 Xposition Yposition Zposition Zrotation Xrotation Yrotation
	JOINT Spine1
	{
		OFFSET -0.0137 5.0038 -0.0537
		CHANNELS 3 Zrotation Xrotation Yrotation
		JOINT Spine2
		{
			OFFSET -0.0000 7.1253 -0.0298
			CHANNELS 3 Zrotation Xrotation Yrotation
			JOINT Chest
			{
				OFFSET -0.0000 7.5501 -0.8160
				CHANNELS 3 Zrotation Xrotation Yrotation
				JOINT Neck1
				{
					OFFSET -0.1817 26.3113 -0.5533
					CHANNELS 3 Zrotation Xrotation Yrotation
					JOINT Neck2
					{
						OFFSET -0.0000 7.7094 2.3026
						CHANNELS 3 Zrotation Xrotation Yrotation
						JOINT Head
						{
							OFFSET -0.0000 6.1289 1.9537
							CHANNELS 3 Zrotation Xrotation Yrotation
							JOINT Jaw
							{
								OFFSET 0.0026 0.4756 3.0949
								CHANNELS 3 Zrotation Xrotation Yrotation
								End Site
								{
									OFFSET 0.0 1.0 0.0
								}
							}
							JOINT LeftEye
							{
								OFFSET 3.2064 5.3802 7.5869
								CHANNELS 3 Zrotation Xrotation Yrotation
								End Site
								{
									OFFSET 0.0 1.0 0.0
								}
							}
							JOINT RightEye
							{
								OFFSET -3.2224 5.3619 7.5582
								CHANNELS 3 Zrotation Xrotation Yrotation
								End Site
								{
									OFFSET 0.0 1.0 0.0
								}
							}
						}
					}
				}
				JOINT LeftShoulder
				{
					OFFSET 1.6217 23.2372 5.1134
					CHANNELS 3 Zrotation Xrotation Yrotation
					JOINT LeftArm
					{
						OFFSET 14.9198 0.0000 -5.5023
						CHANNELS 3 Zrotation Xrotation Yrotation
						JOINT LeftForeArm
						{
							OFFSET 28.7393 0.0000 -0.0026
							CHANNELS 3 Zrotation Xrotation Yrotation
							JOINT LeftHand
							{
								OFFSET 27.0940 -0.0000 0.0026
								CHANNELS 3 Zrotation Xrotation Yrotation
								JOINT LeftHandThumbEnd
								{
									OFFSET 12.2686 -3.2202 4.8331
									CHANNELS 3 Zrotation Xrotation Yrotation
									End Site
									{
										OFFSET 0.0 1.0 0.0
									}
								}
								JOINT LeftHandMiddleEnd
								{
									OFFSET 19.0120 -0.3129 -0.0340
									CHANNELS 3 Zrotation Xrotation Yrotation
									End Site
									{
										OFFSET 0.0 1.0 0.0
									}
								}
							}
						}
					}
				}
				JOINT RightShoulder
				{
					OFFSET -1.3801 23.1803 5.2142
					CHANNELS 3 Zrotation Xrotation Yrotation
					JOINT RightArm
					{
						OFFSET -15.0372 0.0000 -5.5456
						CHANNELS 3 Zrotation Xrotation Yrotation
						JOINT RightForeArm
						{
							OFFSET -28.7366 0.0000 -0.0026
							CHANNELS 3 Zrotation Xrotation Yrotation
							JOINT RightHand
							{
								OFFSET -27.1336 -0.0000 0.0026
								CHANNELS 3 Zrotation Xrotation Yrotation
								JOINT RightHandThumbEnd
								{
									OFFSET -12.2642 -3.2115 4.8040
									CHANNELS 3 Zrotation Xrotation Yrotation
									End Site
									{
										OFFSET 0.0 1.0 0.0
									}
								}
								JOINT RightHandMiddleEnd
								{
									OFFSET -19.0006 -0.3066 -0.0316
									CHANNELS 3 Zrotation Xrotation Yrotation
									End Site
									{
										OFFSET 0.0 1.0 0.0
									}
								}
							}
						}
					}
				}
			}
		}
	}
	JOINT LeftLeg
	{
		OFFSET 10.0432 -8.4345 2.5957
		CHANNELS 3 Zrotation Xrotation Yrotation
		JOINT LeftShin
		{
			OFFSET -0.0000 -43.2218 -0.8029
			CHANNELS 3 Zrotation Xrotation Yrotation
			JOINT LeftFoot
			{
				OFFSET 0.0000 -42.1551 -3.4815
				CHANNELS 3 Zrotation Xrotation Yrotation
				JOINT LeftToeBase
				{
					OFFSET 0.0000 -5.0595 13.2315
					CHANNELS 3 Zrotation Xrotation Yrotation
					End Site
					{
						OFFSET 0.0 1.0 0.0
					}
				}
			}
		}
	}
	JOINT RightLeg
	{
		OFFSET -10.0473 -8.2953 2.6203
		CHANNELS 3 Zrotation Xrotation Yrotation
		JOINT RightShin
		{
			OFFSET 0.0000 -43.3622 -0.8056
			CHANNELS 3 Zrotation Xrotation Yrotation
			JOINT RightFoot
			{
				OFFSET 0.0000 -42.1174 -3.4784
				CHANNELS 3 Zrotation Xrotation Yrotation
				JOINT RightToeBase
				{
					OFFSET -0.0000 -5.0796 13.2842
					CHANNELS 3 Zrotation Xrotation Yrotation
					End Site
					{
						OFFSET 0.0 1.0 0.0
					}
				}
			}
		}
	}
}
MOTION
Frames: 13
Frame Time: 0.033333
-178.6349 82.7456 -116.8467 -4.5830 7.2192 0.2117 -1.1437 12.7163 0.2437 -0.7765 0.1633 0.1459 1.6325 6.1604 -1.9961 20.4584 19.1686 -2.7235 -2.4463 -4.2278 -11.4614 9.5430 -11.0957 -16.8833 -0.0433 -0.0486 0.0213 0.6802 -10.8055 -3.8899 -0.7503 -10.8260 3.9006 8.7184 4.0631 0.0350 -49.0854 -16.9974 -44.4435 0.8077 -0.4159 -134.8216 10.0408 10.8576 -9.6209 -15.3022 10.7105 16.0270 -60.7223 1.1760 2.4498 8.1276 5.5325 11.1047 53.5144 -23.0535 -29.4500 -0.8636 -0.5454 98.1442 -35.3436 14.7891 -23.9561 15.0455 7.2660 -16.1134 49.5998 -3.7786 -5.2883 22.9258 -51.6609 17.1000 -1.1448 68.2698 -1.6553 -20.1165 -22.0492 0.5616 1.6274 -0.8854 -1.7854 -32.1456 -41.5118 2.4482 1.9654 46.0076 3.5586 11.9875 0.8625 -11.1628 -1.6135 -1.4205 1.1348
-180.9044 81.4559 -117.3427 -3.8759 6.9158 0.5407 -1.1599 12.5578 0.3827 -0.7454 0.1792 0.5109 1.4683 6.0693 -1.8353 19.9246 19.3176 -2.6496 -2.5865 -4.2338 -11.8127 9.4641 -11.1077 -17.3534 -0.0823 -0.0632 0.0841 0.6405 -10.8222 -3.8156 -0.7911 -10.8373 3.9620 8.7916 3.9269 0.5458 -49.8686 -17.7195 -45.7381 0.5075 -0.5124 -134.4102 10.1810 10.9205 -9.7259 -15.5401 10.6639 15.9167 -61.0603 1.0063 2.4253 6.6505 5.3769 11.1914 53.6993 -22.6351 -29.6573 -0.7154 -0.4064 95.9422 -34.7640 14.0726 -24.8146 15.1279 7.2627 -16.1500 49.6263 -3.7315 -5.4026 25.0865 -52.5895 15.0923 -1.5000 69.3908 -2.0957 -21.4434 -20.9481 0.6487 1.6314 -0.7068 -1.7492 -36.8509 -35.1693 5.1515 1.5081 40.2380 3.3804 6.3124 3.1506 -15.3954 -1.7527 -1.5990 1.1011
-183.4569 80.1650 -117.6877 -2.9938 6.5391 0.1989 -1.1943 12.3589 0.5114 -0.7258 0.1314 0.8439 1.1941 5.9376 -1.6526 18.9352 19.4154 -2.4255 -2.6729 -4.2512 -12.0502 9.3026 -11.2201 -17.6785 -0.1214 -0.0750 0.1557 0.6006 -10.8182 -3.7328 -0.8341 -10.8169 4.0356 8.6502 3.6680 0.8923 -50.7259 -18.5961 -46.4046 0.0919 -0.5726 -134.0230 10.4170 10.7206 -9.7563 -15.6917 10.6033 15.7671 -61.2947 0.8131 2.5141 5.5020 5.3704 11.2616 54.3886 -22.1631 -29.8007 -0.8190 -0.2578 94.6768 -34.8611 13.7786 -25.2507 14.8430 7.3516 -16.1635 49.6487 -3.5926 -5.3026 27.4968 -52.7855 12.8357 -1.9865 70.0731 -2.6820 -23.0906 -19.7029 1.2297 1.6382 -0.4719 -1.7335 -39.8854 -29.5838 6.0712 1.0224 34.0982 3.1046 2.9800 4.9490 -18.2754 -1.8241 -1.6613 1.0689
-186.3239 78.9585 -118.0238 -2.0938 6.2366 -0.8232 -1.1620 12.1445 0.6399 -0.6980 0.0625 1.0315 0.8506 5.7964 -1.5090 17.5436 19.2301 -2.0004 -2.6863 -4.2700 -12.2318 8.9721 -11.3653 -17.7799 -0.1375 -0.0796 0.2042 0.5844 -10.7731 -3.6755 -0.8538 -10.7659 4.0807 8.0341 3.2658 0.9894 -51.4479 -19.4025 -46.0731 -0.3936 -0.5826 -133.8610 10.6743 10.4992 -9.8261 -15.8113 10.6018 15.6798 -61.3736 0.7330 2.5666 5.1007 5.6071 11.5264 55.5904 -22.1777 -30.0220 -0.9641 -0.0878 94.4510 -35.8737 13.5897 -24.7750 14.4997 7.3753 -16.1110 49.5286 -3.5462 -5.1930 30.2041 -52.4094 10.5353 -2.4159 70.1704 -3.2113 -25.1919 -18.0903 1.9581 1.6369 -0.3974 -1.7547 -41.8407 -26.5689 5.8029 0.8309 29.8613 3.0630 5.6447 6.9092 -18.2036 -1.8155 -1.5592 1.0758
-189.5256 78.0654 -118.4356 -1.3437 6.0602 -2.1948 -0.9995 12.1491 0.7192 -0.6570 0.0170 0.8707 0.5661 5.6021 -1.4552 15.9917 18.7511 -1.4570 -2.6943 -4.2744 -12.1811 8.5878 -11.7238 -17.7398 -0.1188 -0.0722 0.1928 0.6094 -10.6767 -3.6749 -0.8414 -10.6734 4.0491 7.0134 2.9665 0.8935 -51.4223 -20.0751 -45.2300 -0.7595 -0.4528 -134.0253 11.1625 10.5479 -10.0731 -15.9399 10.6688 15.6941 -61.5140 0.8466 2.4576 5.5252 5.8823 12.0132 56.9818 -22.5955 -30.1360 -0.9068 0.1421 95.1028 -37.5746 13.3415 -23.2263 14.2677 7.2599 -15.8806 49.3429 -3.5920 -5.1981 32.9027 -51.5598 8.5355 -2.6424 69.2280 -3.5624 -27.7683 -16.1359 2.7079 1.6288 -0.5075 -1.7557 -43.0090 -26.7634 4.9801 1.0986 28.7424 3.5210 18.7907 9.7579 -14.1314 -1.6868 -1.6066 1.1436
-192.9916 77.6141 -119.0900 -0.7855 5.9142 -3.4758 -0.8201 12.3647 0.5587 -0.6394 0.1400 0.6142 0.5722 5.5719 -1.6235 14.5626 17.9784 -0.8426 -2.7713 -4.2899 -11.9454 8.1652 -12.2903 -17.4907 -0.1027 -0.0631 0.1984 0.6228 -10.5795 -3.6539 -0.8234 -10.5924 4.0365 5.9672 2.8086 0.4305 -50.5403 -20.9460 -44.3016 -0.8940 -0.1859 -134.2788 11.8751 10.5382 -10.4580 -16.0013 10.7922 15.7859 -61.6174 1.0301 2.3750 6.3802 6.0818 12.4991 58.5294 -22.6928 -29.5534 -1.0938 0.3284 96.2833 -39.5372 13.1411 -20.7238 14.1321 7.2839 -15.7293 49.3248 -3.6351 -5.1661 35.2237 -50.2348 7.2382 -2.6499 66.7213 -3.7361 -29.9578 -13.5359 3.2050 1.6262 -0.6808 -1.6878 -43.3878 -30.2088 3.8626 1.5291 31.4587 3.8320 30.1224 8.2780 -9.4646 -1.5436 -1.1669 1.2008
-196.5655 77.6328 -119.9345 -0.4353 5.7592 -4.3047 -0.6481 12.7624 0.1362 -0.6289 0.4598 0.3233 0.9797 5.7586 -2.0958 13.2319 17.3318 -0.4791 -2.8948 -4.3951 -11.5245 7.8897 -12.7116 -16.9865 -0.0874 -0.0857 0.1915 0.6181 -10.4776 -3.6368 -0.7882 -10.5090 4.0062 5.2074 2.6838 -0.3224 -49.3627 -22.2498 -43.3121 -0.8186 -0.2386 -134.5172 12.6651 10.6252 -10.6973 -15.8570 10.7546 15.7009 -61.5623 1.3049 2.2372 6.9549 6.1904 12.8061 60.4845 -22.4651 -28.6877 -0.9585 0.1054 97.3719 -40.7288 12.9745 -17.7230 13.9415 7.2934 -15.6409 49.1968 -3.7539 -5.1091 36.9783 -48.4081 6.6849 -2.4416 62.3315 -3.6868 -31.4027 -9.8049 3.8280 1.6157 -0.6393 -1.6533 -43.0558 -34.9492 3.2733 1.8367 37.0290 3.8054 34.1679 4.7896 -5.5348 -1.4501 -0.7829 1.2821
-200.1590 78.1617 -120.8272 -0.1368 5.9361 -4.6365 -0.4660 13.0194 -0.2641 -0.5478 0.6439 -0.2194 1.3826 6.0395 -2.6156 12.0406 17.3237 -0.4109 -2.6808 -4.3425 -10.8870 7.4351 -12.9939 -16.1441 -0.1075 -0.0782 0.2105 0.5786 -10.4740 -3.6120 -0.7887 -10.5106 4.0306 5.0686 3.0088 -1.3919 -48.3008 -23.8548 -42.5335 -0.6624 -0.2049 -134.4470 13.8636 10.7518 -10.7960 -15.6553 10.9526 15.7883 -61.5099 1.5640 2.1659 6.9364 6.0900 12.6091 63.0322 -21.3851 -27.3233 -0.4914 -0.0206 98.0888 -41.6222 13.2336 -14.9273 13.9077 7.3232 -15.6983 49.2089 -3.7244 -5.0954 37.6345 -46.4376 7.1337 -2.0954 56.1934 -3.4820 -32.0405 -5.4847 4.1333 1.6218 -0.6080 -1.6573 -41.9734 -39.1238 3.2254 2.1530 42.5851 4.0213 33.7143 1.9875 -3.8995 -1.4371 -0.6608 1.2396
-203.8072 78.9716 -121.6588 0.2981 6.2281 -4.4952 -0.2208 13.2796 -0.6744 -0.4108 0.7410 -0.8791 1.7091 6.1365 -3.2393 10.9030 17.9064 -0.4579 -2.3146 -4.2425 -10.2323 7.0051 -13.0577 -15.3089 -0.1214 -0.0798 0.2061 0.5533 -10.4963 -3.6165 -0.7908 -10.5447 4.0369 5.5815 3.4451 -2.3562 -47.9905 -25.2563 -41.9285 -0.3862 -0.0843 -134.2216 15.1723 11.4660 -10.2718 -15.5706 11.1680 15.8528 -61.8074 1.7654 2.1729 6.2105 5.8916 11.9040 66.0841 -19.6454 -25.8805 0.1949 -0.0213 98.8571 -42.0080 14.0063 -12.4293 13.9858 7.3208 -15.7663 49.2536 -3.6189 -5.0776 37.3397 -43.8158 8.2464 -1.7235 48.2917 -3.2287 -32.1450 -0.4251 4.3763 1.6340 -0.6798 -1.6414 -40.3446 -42.2030 2.5328 2.3031 46.6769 4.0120 32.3425 -0.6806 -3.3665 -1.4397 -0.5860 1.2052
-207.3346 79.9500 -122.4421 0.7107 6.6289 -4.3322 0.2923 13.5479 -0.9220 -0.3548 0.6764 -1.1695 2.1432 6.2430 -4.1229 9.8568 18.3831 -0.2734 -1.9929 -4.1730 -10.1093 6.7467 -13.1497 -14.6658 -0.1046 -0.1052 0.1667 0.5792 -10.5878 -3.6733 -0.7812 -10.6461 4.0168 5.8372 3.8615 -2.6889 -47.6609 -25.8984 -42.2940 0.1340 -0.1174 -134.1521 15.8760 12.8667 -9.4257 -15.4920 11.4266 15.9436 -62.1973 1.8590 2.1849 5.3032 5.6095 11.2003 68.1444 -17.8710 -24.2670 0.4968 -0.1861 99.9935 -42.6076 15.0737 -10.7037 14.3925 7.3646 -15.8034 49.3863 -3.4921 -5.1446 36.8091 -40.4791 9.4710 -1.2336 38.8998 -2.7889 -31.5964 5.7250 4.0776 1.7264 -0.9967 -1.6605 -38.0992 -44.9216 0.8655 2.2493 49.5979 3.7699 30.4580 -2.9793 -3.0263 -1.4479 -0.5254 1.2085
-210.5078 80.9654 -123.1967 1.2496 7.3614 -4.4113 0.8910 13.6045 -1.1001 -0.1835 0.4983 -1.5118 2.4016 6.2608 -4.6108 8.9040 18.4970 -0.1463 -1.8165 -4.0763 -9.8784 6.6436 -13.1574 -14.4821 -0.0950 -0.1040 0.1554 0.5891 -10.6066 -3.6943 -0.7695 -10.6638 4.0124 5.5698 4.2101 -2.6905 -47.6358 -26.1835 -42.7499 0.2166 -0.1585 -134.1801 16.1682 14.1997 -8.5590 -15.3612 11.4885 16.0300 -62.2784 1.7929 2.1991 4.6375 5.4652 11.1736 68.7790 -16.7888 -23.2340 0.4955 -0.4316 101.2289 -43.7741 16.1178 -9.1754 14.5677 7.4474 -15.9085 49.6189 -3.3903 -5.2474 35.7763 -36.7254 10.4337 -0.7149 29.0974 -2.4651 -29.6716 12.2246 5.8342 1.7339 -1.4957 -1.7273 -35.8031 -47.6675 -1.0029 2.1420 51.6936 3.3961 28.3216 -4.9456 -2.1827 -1.4525 -0.2832 1.1319
-213.2908 82.0497 -123.9520 2.0620 8.1982 -4.6627 1.3743 13.5497 -1.1564 -0.0582 0.3404 -1.7025 2.6037 6.3840 -4.9608 8.4754 18.0329 0.0522 -1.7638 -4.0686 -9.9200 6.2882 -13.4183 -14.3776 -0.0727 -0.0894 0.1184 0.6166 -10.5994 -3.7351 -0.7499 -10.6617 3.9711 4.9750 4.4246 -2.5575 -47.7831 -26.1262 -43.1559 0.0978 -0.1959 -133.9093 15.6644 15.8078 -7.9679 -15.2119 11.3365 16.0186 -62.0056 1.7199 2.2159 4.5143 5.4000 11.6769 67.7363 -17.0654 -22.5984 0.2075 -0.7160 101.9918 -45.1206 16.8270 -8.4837 14.6092 7.5041 -15.9271 49.7691 -3.3572 -5.2812 34.1370 -34.7135 11.0798 -0.3714 24.3010 -2.1959 -27.1425 14.7764 7.4745 1.7056 -1.6247 -1.7873 -33.7991 -50.0413 -2.4920 1.9661 52.9398 2.9693 26.3443 -6.1640 -1.4955 -1.4488 -0.1075 1.0930
-215.6419 83.1047 -124.7925 3.0406 8.6683 -4.9124 1.5663 13.5806 -1.1011 0.0268 0.3660 -1.8159 2.8569 6.5986 -5.0638 8.4496 17.4023 0.1274 -1.8749 -4.0755 -9.9544 5.8949 -13.8882 -14.3357 -0.0585 -0.0749 0.0939 0.6393 -10.5853 -3.7644 -0.7420 -10.6548 3.9455 4.3811 4.6779 -2.4742 -48.0521 -25.9642 -43.3542 0.0017 -0.1384 -133.0671 14.8238 17.0724 -7.6374 -15.2459 11.1685 15.9128 -61.9547 1.6622 2.1718 4.8186 5.3505 12.4445 65.6915 -18.6120 -22.6353 -0.0119 -1.0339 102.0207 -46.2171 16.9148 -8.5213 14.4358 7.4668 -15.8313 49.6626 -3.3270 -5.1994 31.5319 -35.6315 12.6504 -0.5511 27.7556 -2.1665 -26.6087 11.9678 6.5856 1.7077 -1.8835 -1.8810 -32.3820 -51.4034 -3.1085 1.7365 53.4586 2.5767 24.5547 -6.7979 -1.3651 -1.4475 0.0178 1.0300
